solid deckel
   facet normal 6.123234e-17 1.000000e+00 6.123234e-17
      outer loop
         vertex 3.750000e+01 2.050000e+01 -3.000000e+00
         vertex -3.750000e+01 2.050000e+01 -3.000000e+00
         vertex -3.750000e+01 2.050000e+01 3.800000e+01
      endloop
   endfacet
   facet normal 6.123234e-17 1.000000e+00 6.123234e-17
      outer loop
         vertex 3.750000e+01 2.050000e+01 -3.000000e+00
         vertex -3.750000e+01 2.050000e+01 3.800000e+01
         vertex 3.750000e+01 2.050000e+01 3.800000e+01
      endloop
   endfacet
   facet normal -6.123234e-17 -1.000000e+00 -6.123234e-17
      outer loop
         vertex -3.450000e+01 1.550000e+01 -1.399654e-14
         vertex 3.450000e+01 1.550000e+01 -5.412914e-15
         vertex 3.450000e+01 1.550000e+01 3.500000e+01
      endloop
   endfacet
   facet normal -6.123234e-17 -1.000000e+00 -6.123234e-17
      outer loop
         vertex -3.450000e+01 1.550000e+01 -1.399654e-14
         vertex 3.450000e+01 1.550000e+01 3.500000e+01
         vertex -3.450000e+01 1.550000e+01 3.500000e+01
      endloop
   endfacet
   facet normal 1.000000e+00 -6.123234e-17 1.836970e-16
      outer loop
         vertex 3.750000e+01 2.050000e+01 3.800000e+01
         vertex 3.750000e+01 1.750000e+01 3.800000e+01
         vertex 3.750000e+01 1.750000e+01 -3.000000e+00
      endloop
   endfacet
   facet normal 1.000000e+00 -6.123234e-17 1.836970e-16
      outer loop
         vertex 3.750000e+01 2.050000e+01 3.800000e+01
         vertex 3.750000e+01 1.750000e+01 -3.000000e+00
         vertex 3.750000e+01 2.050000e+01 -3.000000e+00
      endloop
   endfacet
   facet normal 2.449294e-16 6.123234e-17 -1.000000e+00
      outer loop
         vertex 3.750000e+01 2.050000e+01 -3.000000e+00
         vertex 3.750000e+01 1.750000e+01 -3.000000e+00
         vertex -3.750000e+01 1.750000e+01 -3.000000e+00
      endloop
   endfacet
   facet normal 2.449294e-16 6.123234e-17 -1.000000e+00
      outer loop
         vertex 3.750000e+01 2.050000e+01 -3.000000e+00
         vertex -3.750000e+01 1.750000e+01 -3.000000e+00
         vertex -3.750000e+01 2.050000e+01 -3.000000e+00
      endloop
   endfacet
   facet normal -1.000000e+00 6.123234e-17 -6.123234e-17
      outer loop
         vertex -3.750000e+01 2.050000e+01 -3.000000e+00
         vertex -3.750000e+01 1.750000e+01 -3.000000e+00
         vertex -3.750000e+01 1.750000e+01 3.800000e+01
      endloop
   endfacet
   facet normal -1.000000e+00 6.123234e-17 -6.123234e-17
      outer loop
         vertex -3.750000e+01 2.050000e+01 -3.000000e+00
         vertex -3.750000e+01 1.750000e+01 3.800000e+01
         vertex -3.750000e+01 2.050000e+01 3.800000e+01
      endloop
   endfacet
   facet normal -1.224647e-16 -6.123234e-17 1.000000e+00
      outer loop
         vertex -3.750000e+01 2.050000e+01 3.800000e+01
         vertex -3.750000e+01 1.750000e+01 3.800000e+01
         vertex 3.750000e+01 1.750000e+01 3.800000e+01
      endloop
   endfacet
   facet normal -1.224647e-16 -6.123234e-17 1.000000e+00
      outer loop
         vertex -3.750000e+01 2.050000e+01 3.800000e+01
         vertex 3.750000e+01 1.750000e+01 3.800000e+01
         vertex 3.750000e+01 2.050000e+01 3.800000e+01
      endloop
   endfacet
   facet normal -1.000000e+00 1.224647e-16 0.000000e+00
      outer loop
         vertex -3.450000e+01 1.750000e+01 3.500000e+01
         vertex -3.450000e+01 1.750000e+01 3.686320e-16
         vertex -3.450000e+01 1.550000e+01 -6.891114e-15
      endloop
   endfacet
   facet normal -1.000000e+00 1.224647e-16 0.000000e+00
      outer loop
         vertex -3.450000e+01 1.750000e+01 3.500000e+01
         vertex -3.450000e+01 1.550000e+01 -6.891114e-15
         vertex -3.450000e+01 1.550000e+01 3.500000e+01
      endloop
   endfacet
   facet normal 1.000000e+00 -2.449294e-16 -0.000000e+00
      outer loop
         vertex 3.450000e+01 1.750000e+01 3.500000e+01
         vertex 3.450000e+01 1.550000e+01 3.500000e+01
         vertex 3.450000e+01 1.550000e+01 5.908921e-15
      endloop
   endfacet
   facet normal 1.000000e+00 -2.449294e-16 -0.000000e+00
      outer loop
         vertex 3.450000e+01 1.750000e+01 3.500000e+01
         vertex 3.450000e+01 1.550000e+01 5.908921e-15
         vertex 3.450000e+01 1.750000e+01 6.398780e-15
      endloop
   endfacet
   facet normal -0.000000e+00 0.000000e+00 -1.000000e+00
      outer loop
         vertex 3.450000e+01 1.550000e+01 5.908921e-15
         vertex -3.450000e+01 1.550000e+01 -5.412914e-15
         vertex -3.450000e+01 1.750000e+01 -7.136044e-15
      endloop
   endfacet
   facet normal -0.000000e+00 0.000000e+00 -1.000000e+00
      outer loop
         vertex 3.450000e+01 1.550000e+01 5.908921e-15
         vertex -3.450000e+01 1.750000e+01 -7.136044e-15
         vertex 3.450000e+01 1.750000e+01 7.840834e-15
      endloop
   endfacet
   facet normal -0.000000e+00 -0.000000e+00 1.000000e+00
      outer loop
         vertex -3.450000e+01 1.550000e+01 3.500000e+01
         vertex 3.450000e+01 1.550000e+01 3.500000e+01
         vertex 3.450000e+01 1.750000e+01 3.500000e+01
      endloop
   endfacet
   facet normal -0.000000e+00 -0.000000e+00 1.000000e+00
      outer loop
         vertex -3.450000e+01 1.550000e+01 3.500000e+01
         vertex 3.450000e+01 1.750000e+01 3.500000e+01
         vertex -3.450000e+01 1.750000e+01 3.500000e+01
      endloop
   endfacet
   facet normal -6.123234e-17 -1.000000e+00 -0.000000e+00
      outer loop
         vertex -3.450000e+01 1.750000e+01 5.195464e-16
         vertex -3.450000e+01 1.750000e+01 3.500000e+01
         vertex -3.750000e+01 1.750000e+01 3.800000e+01
      endloop
   endfacet
   facet normal -6.123234e-17 -1.000000e+00 -0.000000e+00
      outer loop
         vertex -3.450000e+01 1.750000e+01 5.195464e-16
         vertex -3.750000e+01 1.750000e+01 3.800000e+01
         vertex -3.750000e+01 1.750000e+01 -3.000000e+00
      endloop
   endfacet
   facet normal -6.123234e-17 -1.000000e+00 -0.000000e+00
      outer loop
         vertex 3.450000e+01 1.750000e+01 3.500000e+01
         vertex 3.750000e+01 1.750000e+01 -3.000000e+00
         vertex 3.750000e+01 1.750000e+01 3.800000e+01
      endloop
   endfacet
   facet normal -6.123234e-17 -1.000000e+00 -0.000000e+00
      outer loop
         vertex 3.450000e+01 1.750000e+01 3.500000e+01
         vertex 3.450000e+01 1.750000e+01 6.398780e-15
         vertex 3.750000e+01 1.750000e+01 -3.000000e+00
      endloop
   endfacet
   facet normal -6.123234e-17 -1.000000e+00 -0.000000e+00
      outer loop
         vertex 3.450000e+01 1.750000e+01 -5.481842e-15
         vertex -3.750000e+01 1.750000e+01 -3.000000e+00
         vertex 3.750000e+01 1.750000e+01 -3.000000e+00
      endloop
   endfacet
   facet normal -6.123234e-17 -1.000000e+00 -0.000000e+00
      outer loop
         vertex 3.450000e+01 1.750000e+01 -5.481842e-15
         vertex -3.450000e+01 1.750000e+01 5.195464e-16
         vertex -3.750000e+01 1.750000e+01 -3.000000e+00
      endloop
   endfacet
   facet normal -6.123234e-17 -1.000000e+00 -0.000000e+00
      outer loop
         vertex -3.450000e+01 1.750000e+01 3.500000e+01
         vertex 3.450000e+01 1.750000e+01 3.500000e+01
         vertex 3.750000e+01 1.750000e+01 3.800000e+01
      endloop
   endfacet
   facet normal -6.123234e-17 -1.000000e+00 -0.000000e+00
      outer loop
         vertex -3.450000e+01 1.750000e+01 3.500000e+01
         vertex 3.750000e+01 1.750000e+01 3.800000e+01
         vertex -3.750000e+01 1.750000e+01 3.800000e+01
      endloop
   endfacet
endsolid
